<svg xmlns="http://www.w3.org/2000/svg" viewBox="0 0 30 20" width="48" height="32">
  <!-- Red stripes background -->
  <rect width="30" height="20" fill="#B22234"/>
  <!-- White stripes -->
  <rect y="1.54" width="30" height="0.92" fill="#FFFFFF"/>
  <rect y="3.08" width="30" height="0.92" fill="#FFFFFF"/>
  <rect y="4.62" width="30" height="0.92" fill="#FFFFFF"/>
  <rect y="6.16" width="30" height="0.92" fill="#FFFFFF"/>
  <rect y="7.7" width="30" height="0.92" fill="#FFFFFF"/>
  <rect y="9.24" width="30" height="0.92" fill="#FFFFFF"/>
  <rect y="10.78" width="30" height="0.92" fill="#FFFFFF"/>
  <rect y="12.32" width="30" height="0.92" fill="#FFFFFF"/>
  <rect y="13.86" width="30" height="0.92" fill="#FFFFFF"/>
  <!-- Blue canton -->
  <rect width="12" height="10.78" fill="#3C3B6E"/>
  <!-- Stars (simplified) -->
  <circle cx="2" cy="2" r="0.6" fill="#FFFFFF"/>
  <circle cx="4" cy="2" r="0.6" fill="#FFFFFF"/>
  <circle cx="6" cy="2" r="0.6" fill="#FFFFFF"/>
  <circle cx="2" cy="4" r="0.6" fill="#FFFFFF"/>
  <circle cx="4" cy="4" r="0.6" fill="#FFFFFF"/>
  <circle cx="6" cy="4" r="0.6" fill="#FFFFFF"/>
  <circle cx="2" cy="6" r="0.6" fill="#FFFFFF"/>
  <circle cx="4" cy="6" r="0.6" fill="#FFFFFF"/>
  <circle cx="6" cy="6" r="0.6" fill="#FFFFFF"/>
</svg>
