<svg xmlns="http://www.w3.org/2000/svg" width="32" height="32" viewBox="0 0 32 32">
  <defs>
    <linearGradient id="ballGradient" x1="0%" y1="0%" x2="100%" y2="100%">
      <stop offset="0%" style="stop-color:#FFFFFF;stop-opacity:1" />
      <stop offset="100%" style="stop-color:#E0E0E0;stop-opacity:1" />
    </linearGradient>
  </defs>
  
  <!-- Background circle -->
  <circle cx="16" cy="16" r="15" fill="url(#ballGradient)" stroke="#0066CC" stroke-width="1.5"/>
  
  <!-- Football pattern - pentagon -->
  <path d="M 16 6 L 20 9 L 19 13 L 13 13 L 12 9 Z" fill="#333" opacity="0.8"/>
  
  <!-- Football pattern - hexagons -->
  <path d="M 24 11 L 27 14 L 26 18 L 22 18 L 20 15 Z" fill="#333" opacity="0.8"/>
  <path d="M 8 11 L 12 15 L 10 18 L 6 18 L 5 14 Z" fill="#333" opacity="0.8"/>
  <path d="M 20 20 L 24 23 L 23 27 L 19 27 L 17 24 Z" fill="#333" opacity="0.8"/>
  <path d="M 12 20 L 15 24 L 13 27 L 9 27 L 8 23 Z" fill="#333" opacity="0.8"/>
  
  <!-- Highlight -->
  <circle cx="13" cy="12" r="2" fill="white" opacity="0.3"/>
</svg>


